Coordinates
version=1
nRows=27
nColumns=19
inDegrees=yes

Units are S.I. units (second, meters, Newtons, ...)
If the header above contains a line with 'inDegrees', this indicates whether rotational values are in degrees (yes) or radians (no).

endheader
time	pelvis_tilt	pelvis_list	pelvis_rotation	pelvis_tx	pelvis_ty	pelvis_tz	hip_flexion_r	hip_adduction_r	hip_rotation_r	knee_angle_r	knee_angle_r_beta	ankle_angle_r	hip_flexion_l	hip_adduction_l	hip_rotation_l	knee_angle_l	knee_angle_l_beta	ankle_angle_l
     12.08000000	     -3.54658241	     -5.96466280	     -4.21495067	      2.28176607	      0.98372418	      1.02089231	     21.99424251	      8.97194841	    -10.86276936	     13.51234407	      0.23583489	      3.12739635	     -7.52138223	     -9.08822605	    -13.49273691	     43.81947779	      0.76479416	    -17.38369732
     12.08666667	     -3.16902632	     -6.47394388	     -4.51277842	      2.28171931	      0.98049314	      1.02157272	     21.96707029	      9.43087880	    -11.10826841	     15.64213831	      0.27300682	      3.26269074	     -7.07367845	     -9.69608760	    -12.92917983	     46.63900273	      0.81400416	    -16.47259913
     12.09333333	     -2.73882506	     -6.94336206	     -4.83222398	      2.28154677	      0.97690001	      1.02211616	     22.00608358	      9.76958787	    -11.34840590	     18.21757350	      0.31795664	      3.61359971	     -6.59511299	    -10.20616666	    -12.31406057	     49.54286926	      0.86468619	    -15.38373729
     12.10000000	     -2.21871806	     -7.35986147	     -5.18079870	      2.28122836	      0.97301620	      1.02256512	     22.01719889	      9.99963752	    -11.50880472	     21.08636349	      0.36802647	      4.22914638	     -6.13469085	    -10.63319735	    -11.74601485	     52.50292243	      0.91634886	    -14.20570000
     12.10666667	     -1.21737777	     -7.97893709	     -5.53550850	      2.28100198	      0.96944267	      1.02291495	     21.36429236	     10.43287168	    -11.45338080	     23.83363098	      0.41597533	      5.06783901	     -6.25559895	    -11.24775481	    -11.38510128	     55.36648283	      0.96632742	    -12.94649596
     12.11333333	     -1.14649977	     -8.05674197	     -5.89775007	      2.28026577	      0.96450174	      1.02327162	     22.01268310	     10.28884833	    -11.38074170	     27.13406823	      0.47357883	      6.23502357	     -5.00714493	    -11.32546069	    -10.66250677	     58.49689038	      1.02096334	    -11.75585377
     12.12000000	     -0.12417628	     -8.54918131	     -6.18746505	      2.27978173	      0.96071178	      1.02351705	     21.25394829	     10.58983836	    -11.10831628	     29.82808216	      0.52059824	      7.63198770	     -4.96350158	    -11.84208957	    -10.31548299	     61.34184165	      1.07061711	    -10.60587842
     12.12666667	     -0.01017849	     -8.53564861	     -6.50851095	      2.27878609	      0.95582517	      1.02381382	     21.67119343	     10.42691625	    -10.72857244	     32.81280261	      0.57269144	      9.23916688	     -3.59890865	    -11.83922188	     -9.62127346	     64.35912370	      1.12327861	     -9.49907459
     12.13333333	      0.37447716	     -8.77121037	     -6.76287404	      2.27781476	      0.95149072	      1.02409664	     21.51988896	     10.57662627	    -10.27417944	     35.30371098	      0.61616599	     10.92182177	     -2.53692259	    -12.18091761	     -9.08644552	     67.24043249	      1.17356694	     -8.46476166
     12.14000000	      1.04345840	     -9.09057372	     -6.94420090	      2.27680883	      0.94778386	      1.02436971	     20.84281629	     10.82446614	     -9.82205177	     37.40627976	      0.65286274	     12.75671010	     -1.78040908	    -12.65956076	     -8.65562861	     69.91619878	      1.22026787	     -7.52760004
     12.14666667	      0.85774396	     -9.15276936	     -7.07553465	      2.27553150	      0.94340652	      1.02462881	     21.08012302	     10.88340953	     -9.43524997	     39.41592440	      0.68793766	     14.55779625	      0.19231988	    -12.93821340	     -7.89852604	     72.66903161	      1.26831387	     -6.65752331
     12.15333333	      0.95217083	     -9.35081224	     -7.08410837	      2.27427404	      0.93987922	      1.02478086	     20.74473532	     11.06969992	     -9.12573488	     40.94445144	      0.71461549	     16.29410496	      1.86663706	    -13.39094967	     -7.17677869	     75.16051648	      1.31179848	     -5.83853354
     12.16000000	      1.59154474	     -9.53719911	     -7.17580882	      2.27286954	      0.93772064	      1.02501524	     19.58223799	     11.31103088	     -8.48300701	     42.05705361	      0.73403406	     17.71365463	      2.85620083	    -13.73003964	     -6.65731280	     77.21922465	      1.34772972	     -5.29673278
     12.16666667	      0.85535420	     -9.65978436	     -6.86999212	      2.27167405	      0.93412666	      1.02490964	     19.82891088	     11.37494434	     -8.72900101	     42.97243619	      0.75001050	     19.42987140	      5.75667303	    -14.26380584	     -5.54165738	     79.51684327	      1.38783073	     -4.25287481
     12.17333333	      0.81758880	     -9.84632580	     -6.60371999	      2.27041291	      0.93217389	      1.02480325	     19.05449637	     11.53415470	     -8.69278024	     43.42883432	      0.75797615	     20.70619472	      7.76412541	    -14.73164542	     -4.63846513	     81.30407475	      1.41902380	     -3.45733915
     12.18000000	      1.17583380	     -9.81957398	     -6.59131481	      2.26909934	      0.93134745	      1.02493539	     17.70553356	     11.55230199	     -8.20699975	     43.67841012	      0.76233207	     21.75286367	      9.16302757	    -14.93577807	     -4.20072384	     82.62850913	      1.44213954	     -2.81228066
     12.18666667	      0.85340361	    -10.18045010	     -5.85074229	      2.26825258	      0.93018435	      1.02436791	     16.82821065	     11.76169055	     -8.85233508	     43.35810334	      0.75674166	     22.70091579	     11.66963094	    -15.59628218	     -2.88175088	     83.97841263	      1.46569980	     -1.84354751
     12.19333333	      0.87480343	    -10.29738998	     -5.42354538	      2.26733659	      0.93006920	      1.02407839	     15.48192855	     11.82069009	     -8.98809987	     42.90870322	      0.74889815	     23.37416382	     13.58092341	    -15.94580622	     -2.09031086	     84.84607629	      1.48084339	     -0.98197958
     12.20000000	      0.93681949	    -10.35329417	     -4.97303443	      2.26661476	      0.93062432	      1.02379186	     13.94128605	     11.82540525	     -9.12493710	     42.18469572	      0.73626183	     23.83830317	     15.37817130	    -16.20822270	     -1.40499447	     85.36631485	      1.48992326	     -0.15870461
     12.20666667	      0.94186930	    -10.16335866	     -4.76950403	      2.26597766	      0.93173014	      1.02377187	     12.40074534	     11.65319629	     -8.92671464	     41.38344078	      0.72227730	     24.15153734	     17.03530459	    -16.24474265	     -1.14494810	     85.49645357	      1.49219461	      0.68893487
     12.21333333	      1.26632858	    -10.36844959	     -4.06288436	      2.26562851	      0.93355482	      1.02319626	     10.29485611	     11.77742552	     -9.34907429	     40.08658965	      0.69964298	     24.07290400	     18.45808829	    -16.58489488	     -0.43874286	     85.42432763	      1.49093578	      1.49479207
     12.22000000	      1.57853770	    -10.27281254	     -3.65691083	      2.26541390	      0.93597760	      1.02295986	      8.16703177	     11.67877409	     -9.36294875	     38.75918908	      0.67647546	     23.85463867	     19.61260040	    -16.66648714	     -0.26515456	     84.93132693	      1.48233129	      2.28258080
     12.22666667	      1.95680351	    -10.04408172	     -3.35322605	      2.26537030	      0.93894402	      1.02280974	      5.91122766	     11.46322725	     -9.23547003	     37.32231399	      0.65139726	     23.42154494	     20.49731150	    -16.61336707	     -0.36448752	     84.09941848	      1.46781175	      3.03797454
     12.23333333	      2.18410970	     -9.75834387	     -3.07172523	      2.26542418	      0.94213593	      1.02265311	      3.80918307	     11.20652372	     -9.10133622	     35.82792723	      0.62531529	     22.74189991	     21.43759353	    -16.48578503	     -0.56370556	     83.00524545	      1.44871483	      3.71422369
     12.24000000	      2.45594350	     -9.32615101	     -2.90790086	      2.26567437	      0.94576415	      1.02254873	      1.64744905	     10.79022312	     -8.86016562	     34.30397851	      0.59871737	     21.85346207	     22.09878161	    -16.20643297	     -1.04475152	     81.58064564	      1.42385087	      4.33832316
     12.24666667	      1.87093148	     -8.75548879	     -2.92121180	      2.26585792	      0.94857337	      1.02249321	      0.60440171	     10.21706709	     -8.67793184	     33.10462901	      0.57778477	     20.86398973	     23.65970046	    -15.79540423	     -1.63015705	     80.06818237	      1.39745341	      4.87053381
     12.25333333	      2.79456086	     -8.20075190	     -2.67164427	      2.26650329	      0.95368572	      1.02224169	     -2.36526237	      9.65037778	     -8.43718871	     31.27305983	      0.54581786	     19.38218563	     23.19185049	    -15.29651909	     -2.38145186	     77.92669214	      1.36007735	      5.33448369
